# xmcd CD database file
#
# Track frame offsets:
#	150
#	17404
#	33826
#	67743
#	113140
#	132899
#
# Disc length: 2077 seconds
#
# Revision: 0
# Processed by: cddbd v1.5.2PL0 Copyright (c) Steve Scherf et al.
# Submitted via: CDex 1.70beta2
#
DISCID=3d081b06
DTITLE=FH BigBand - Live at the Jazzschmiede Düsseldorf
DYEAR=2011
DGENRE=Jazz
TTITLE0=The Gumbo Variations
TTITLE1=Peaches en Regalia
TTITLE2=Take Your Clothes off When You Dance
TTITLE3=Heavy Duty Judy - The Grand Vazoo
TTITLE4=We Are Not Alone
TTITLE5=Sofa #1
EXTD=YEAR: 2011
EXTT0=
EXTT1=
EXTT2=
EXTT3=
EXTT4=
EXTT5=
PLAYORDER=
